<?xml version="1.0" standalone="no"?>
<!DOCTYPE svg PUBLIC "-//W3C//DTD SVG 1.1//EN" "http://www.w3.org/Graphics/SVG/1.1/DTD/svg11.dtd" >
<svg xmlns="http://www.w3.org/2000/svg">
<metadata>Generated by IcoMoon</metadata>
<defs>
<font id="picon" horiz-adv-x="1024">
<font-face units-per-em="1024" ascent="960" descent="-64" />
<missing-glyph horiz-adv-x="1024" />
<glyph unicode="&#x20;" horiz-adv-x="512" d="" />
<glyph unicode="&#xe900;" glyph-name="angle-up-solid" d="M466.793 653.296c25 25 65.6 25 90.6 0l320-320c25-25 25-65.6 0-90.6s-65.6-25-90.6 0l-274.8 274.8-274.8-274.6c-25-25-65.6-25-90.6 0s-25 65.6 0 90.6l320 320z" />
<glyph unicode="&#xe901;" glyph-name="angle-right-solid" d="M717.296 493.2c25-25 25-65.6 0-90.6l-320-320c-25-25-65.6-25-90.6 0s-25 65.6 0 90.6l274.8 274.8-274.6 274.8c-25 25-25 65.6 0 90.6s65.6 25 90.6 0l320-320z" />
<glyph unicode="&#xe902;" glyph-name="angle-down-solid" d="M466.801 242.701c25-25 65.6-25 90.6 0l320 320c25 25 25 65.6 0 90.6s-65.6 25-90.6 0l-274.8-274.8-274.8 274.6c-25 25-65.6 25-90.6 0s-25-65.6 0-90.6l320-320z" />
<glyph unicode="&#xe903;" glyph-name="angle-left-solid" d="M306.689 493.2c-25-25-25-65.6 0-90.6l320-320c25-25 65.6-25 90.6 0s25 65.6 0 90.6l-274.8 274.8 274.6 274.8c25 25 25 65.6 0 90.6s-65.6 25-90.6 0l-320-320z" />
<glyph unicode="&#xe904;" glyph-name="arrow-up-solid" d="M557.2 877.237c-25 25-65.6 25-90.6 0l-320-320c-25-25-25-65.6 0-90.6s65.6-25 90.6 0l210.8 211v-613.6c0-35.4 28.6-64 64-64s64 28.6 64 64v613.4l210.8-210.6c25-25 65.6-25 90.6 0s25 65.6 0 90.6l-320 320z" />
<glyph unicode="&#xe905;" glyph-name="arrow-right-solid" d="M941.23 402.8c25 25 25 65.6 0 90.6l-320 320c-25 25-65.6 25-90.6 0s-25-65.6 0-90.6l211-210.8h-613.6c-35.4 0-64-28.6-64-64s28.6-64 64-64h613.4l-210.6-210.8c-25-25-25-65.6 0-90.6s65.6-25 90.6 0l320 320z" />
<glyph unicode="&#xe906;" glyph-name="arrow-down-solid" d="M466.793 18.785c25-25 65.6-25 90.6 0l320 320c25 25 25 65.6 0 90.6s-65.6 25-90.6 0l-210.8-211v613.6c0 35.4-28.6 64-64 64s-64-28.6-64-64v-613.4l-210.8 210.6c-25 25-65.6 25-90.6 0s-25-65.6 0-90.6l320-320z" />
<glyph unicode="&#xe907;" glyph-name="arrow-left-solid" d="M82.77 493.2c-25-25-25-65.6 0-90.6l320-320c25-25 65.6-25 90.6 0s25 65.6 0 90.6l-211 210.8h613.6c35.4 0 64 28.6 64 64s-28.6 64-64 64h-613.4l210.6 210.8c25 25 25 65.6 0 90.6s-65.6 25-90.6 0l-320-320z" />
<glyph unicode="&#xe908;" glyph-name="plus-solid" d="M576 800c0 35.4-28.6 64-64 64s-64-28.6-64-64v-288h-288c-35.4 0-64-28.6-64-64s28.6-64 64-64h288v-288c0-35.4 28.6-64 64-64s64 28.6 64 64v288h288c35.4 0 64 28.6 64 64s-28.6 64-64 64h-288v288z" />
<glyph unicode="&#xe909;" glyph-name="minus-solid" d="M928 448c0-35.4-28.6-64-64-64h-704c-35.4 0-64 28.6-64 64s28.6 64 64 64h704c35.4 0 64-28.6 64-64z" />
<glyph unicode="&#xe90a;" glyph-name="arrow-up-from-bracket-solid" d="M557.2 941.23c-25 25-65.6 25-90.6 0l-256-256c-25-25-25-65.6 0-90.6s65.6-25 90.6 0l146.8 146.8v-421.4c0-35.4 28.6-64 64-64s64 28.6 64 64v421.4l146.8-146.8c25-25 65.6-25 90.6 0s25 65.6 0 90.6l-256 256zM192 256.030c0 35.4-28.6 64-64 64s-64-28.6-64-64v-128c0-106 86-192 192-192h512c106 0 192 86 192 192v128c0 35.4-28.6 64-64 64s-64-28.6-64-64v-128c0-35.4-28.6-64-64-64h-512c-35.4 0-64 28.6-64 64v128z" />
<glyph unicode="&#xe90b;" glyph-name="download-solid" d="M576 896c0 35.4-28.6 64-64 64s-64-28.6-64-64v-485.4l-146.8 146.8c-25 25-65.6 25-90.6 0s-25-65.6 0-90.6l256-256c25-25 65.6-25 90.6 0l256 256c25 25 25 65.6 0 90.6s-65.6 25-90.6 0l-146.6-146.8v485.4zM128 256c-70.6 0-128-57.4-128-128v-64c0-70.6 57.4-128 128-128h768c70.6 0 128 57.4 128 128v64c0 70.6-57.4 128-128 128h-203l-90.6-90.6c-50-50-131-50-181 0l-90.4 90.6h-203zM864 144c26.51 0 48-21.49 48-48s-21.49-48-48-48v0c-26.51 0-48 21.49-48 48s21.49 48 48 48v0z" />
<glyph unicode="&#xe90c;" glyph-name="file-pdf-solid" d="M16 832c0 70.6 57.4 128 128 128h320v-256c0-35.4 28.6-64 64-64h256v-288h-416c-70.6 0-128-57.4-128-128v-288h-96c-70.6 0-128 57.4-128 128v768zM784 704h-256v256l256-256zM368 256h64c61.8 0 112-50.2 112-112s-50.2-112-112-112h-32v-64c0-17.6-14.4-32-32-32s-32 14.4-32 32v256c0 17.6 14.4 32 32 32zM432 96c26.6 0 48 21.4 48 48s-21.4 48-48 48h-32v-96h32zM624 256h64c53 0 96-43 96-96v-128c0-53-43-96-96-96h-64c-17.6 0-32 14.4-32 32v256c0 17.6 14.4 32 32 32zM688 0c17.6 0 32 14.4 32 32v128c0 17.6-14.4 32-32 32h-32v-192h32zM848 224c0 17.6 14.4 32 32 32h96c17.6 0 32-14.4 32-32s-14.4-32-32-32h-64v-64h64c17.6 0 32-14.4 32-32s-14.4-32-32-32h-64v-96c0-17.6-14.4-32-32-32s-32 14.4-32 32v256z" />
<glyph unicode="&#xe90d;" glyph-name="heart-solid" d="M95.207 369.348l361.4-337.4c15-14 34.8-21.8 55.4-21.8s40.4 7.8 55.4 21.8l361.4 337.4c60.8 56.6 95.2 136 95.2 219v11.6c0 139.8-101 259-238.8 282-91.2 15.2-184-14.6-249.2-79.8l-24-24-24 24c-65.2 65.2-158 95-249.2 79.8-137.8-23-238.8-142.2-238.8-282v-11.6c0-83 34.4-162.4 95.2-219z" />
<glyph unicode="&#xe90e;" glyph-name="star-solid" d="M566.753 901.748c-10.102 20.968-31.452 34.314-54.9 34.314s-44.607-13.343-54.9-34.314l-122.573-252.198-273.739-40.414c-22.875-3.432-41.939-19.443-48.991-41.366s-1.334-46.132 15.059-62.334l198.632-196.537-46.893-277.744c-3.813-22.875 5.718-46.132 24.591-59.666s43.843-15.25 64.432-4.384l244.573 130.58 244.573-130.58c20.589-10.866 45.559-9.341 64.432 4.384s28.402 36.791 24.591 59.666l-47.084 277.744 198.632 196.537c16.393 16.202 22.302 40.414 15.059 62.334s-26.116 37.934-48.991 41.366l-273.93 40.414-122.573 252.198z" />
<glyph unicode="&#xe90f;" glyph-name="user-solid" d="M511.985 448c141.385 0 256 114.615 256 256s-114.615 256-256 256v0c-141.385 0-256-114.615-256-256s114.615-256 256-256v0zM420.585 352c-197 0-356.6-159.6-356.6-356.6 0-32.801 26.6-59.4 59.4-59.4h777.201c32.801 0 59.4 26.6 59.4 59.4 0 197-159.6 356.6-356.6 356.6h-182.8z" />
<glyph unicode="&#xe910;" glyph-name="users-solid" d="M237 848c69.032 0 125-55.968 125-125s-55.968-125-125-125v0c-69.032 0-125 55.968-125 125s55.968 125 125 125v0zM812 848c69.032 0 125-55.968 125-125s-55.968-125-125-125v0c-69.032 0-125 55.968-125 125s55.968 125 125 125v0zM12 381.276c0 92.029 74.684 166.724 166.724 166.724h66.724c24.842 0 48.434-5.474 69.684-15.158-2.026-11.25-2.974-22.974-2.974-34.842 0-59.684 26.25-113.28 67.658-150-0.316 0-0.626 0-1.092 0h-333.438c-18.275 0-33.277 15-33.277 33.277zM645.279 348c-0.316 0-0.626 0-1.092 0 41.566 36.724 67.658 90.316 67.658 150 0 11.876-1.092 23.434-2.974 34.842 21.25 9.842 44.842 15.158 69.684 15.158h66.724c92.029 0 166.724-74.684 166.724-166.724 0-18.434-15-33.277-33.277-33.277h-333.286zM362 498c0 82.841 67.159 150 150 150s150-67.159 150-150v0c0-82.841-67.159-150-150-150s-150 67.159-150 150v0zM212 89.714c0 115 93.279 208.282 208.282 208.282h183.281c115.158 0 208.434-93.279 208.434-208.282 0-22.974-18.592-41.724-41.724-41.724h-516.724c-22.974 0-41.724 18.592-41.724 41.724z" />
<glyph unicode="&#xe911;" glyph-name="linkedin-in-brands" d="M264.585-0.015h-185.8v598.2h185.8zM171.585 679.785c-59.4 0-107.6 49.2-107.6 108.6 0 59.426 48.174 107.6 107.6 107.6s107.6-48.174 107.6-107.6v0c0-59.4-48.2-108.6-107.6-108.6zM959.785-0.015h-185.4v291.2c0 69.4-1.4 158.4-96.6 158.4-96.6 0-111.4-75.4-111.4-153.4v-296.2h-185.6v598.2h178.2v-81.6h2.6c24.8 47 85.4 96.6 175.8 96.6 188 0 222.6-123.8 222.6-284.6v-328.6z" />
<glyph unicode="&#xe912;" glyph-name="linkedin-brands" d="M896.015 896h-768.2c-35.2 0-63.8-29-63.8-64.6v-766.8c0-35.6 28.6-64.6 63.8-64.6h768.2c35.2 0 64 29 64 64.6v766.8c0 35.6-28.8 64.6-64 64.6zM334.815 128h-132.8v427.6h133v-427.6zM268.415 614c-42.6 0-77 34.6-77 77s34.4 77 77 77c42.4 0 77-34.6 77-77 0-42.6-34.4-77-77-77zM832.615 128h-132.8v208c0 49.6-1 113.4-69 113.4-69.2 0-79.8-54-79.8-109.8v-211.6h-132.8v427.6h127.4v-58.4h1.8c17.8 33.6 61.2 69 125.8 69 134.4 0 159.4-88.6 159.4-203.8v-234.4z" />
<glyph unicode="&#xe913;" glyph-name="facebook-f-brands" d="M352.289 361.408v-425.4h232v425.4h173l36 195.6h-209v69.2c0 103.4 40.6 143 145.4 143 32.6 0 58.8-0.8 74-2.4v177.4c-28.6 7.8-98.6 15.8-139 15.8-213.8 0-312.4-101-312.4-318.8v-84.2h-132v-195.6h132z" />
<glyph unicode="&#xe914;" glyph-name="square-facebook-brands" d="M192 896c-70.6 0-128-57.4-128-128v-640c0-70.6 57.4-128 128-128h196.4v291.6h-105.6v156.4h105.6v67.4c0 174.2 78.8 255 250 255 32.4 0 88.4-6.4 111.4-12.8v-141.6c-12 1.2-33 2-59.2 2-84 0-116.4-31.8-116.4-114.4v-55.6h167.2l-28.8-156.4h-138.6v-291.6h258c70.6 0 128 57.4 128 128v640c0 70.6-57.4 128-128 128h-640z" />
<glyph unicode="&#xe915;" glyph-name="instagram-brands" d="M512.096 677.8c-127.2 0-229.8-102.6-229.8-229.8s102.6-229.8 229.8-229.8 229.8 102.6 229.8 229.8-102.6 229.8-229.8 229.8zM512.096 298.6c-82.2 0-149.4 67-149.4 149.4s67 149.4 149.4 149.4 149.4-67 149.4-149.4-67.2-149.4-149.4-149.4zM804.896 687.2c0-29.8-24-53.6-53.6-53.6-29.8 0-53.6 24-53.6 53.6s24 53.6 53.6 53.6 53.6-24 53.6-53.6zM957.096 632.8c-3.4 71.8-19.8 135.4-72.4 187.8-52.4 52.4-116 68.8-187.8 72.4-74 4.2-295.8 4.2-369.8 0-71.6-3.4-135.2-19.8-187.8-72.2s-68.8-116-72.4-187.8c-4.2-74-4.2-295.8 0-369.8 3.4-71.8 19.8-135.4 72.4-187.8s116-68.8 187.8-72.4c74-4.2 295.8-4.2 369.8 0 71.8 3.4 135.4 19.8 187.8 72.4 52.4 52.4 68.8 116 72.4 187.8 4.2 74 4.2 295.6 0 369.6zM861.496 183.8c-15.6-39.2-45.8-69.4-85.2-85.2-59-23.4-199-18-264.2-18s-205.4-5.2-264.2 18c-39.2 15.6-69.4 45.8-85.2 85.2-23.4 59-18 199-18 264.2s-5.2 205.4 18 264.2c15.6 39.2 45.8 69.4 85.2 85.2 59 23.4 199 18 264.2 18s205.4 5.2 264.2-18c39.2-15.6 69.4-45.8 85.2-85.2 23.4-59 18-199 18-264.2s5.4-205.4-18-264.2z" />
<glyph unicode="&#xe916;" glyph-name="square-instagram-brands" horiz-adv-x="896" d="M388.8 536.6c-28.746-19.416-47.397-51.88-47.397-88.7 0-58.927 47.77-106.697 106.697-106.697 22.107 0 42.644 6.723 59.677 18.237l-0.377-0.24c28.746 19.416 47.397 51.88 47.397 88.7 0 58.927-47.77 106.697-106.697 106.697-22.107 0-42.644-6.723-59.677-18.237l0.377 0.24zM673.4 673.4c-10.4 10.4-23 18.6-36.8 24-36.2 14.2-115.2 13.6-166.2 13-8.2 0-15.8-0.2-22.4-0.2s-14.4 0-22.8 0.2c-51 0.6-129.6 1.4-165.8-13-13.8-5.4-26.2-13.6-36.8-24s-18.6-23-24-36.8c-14.2-36.2-13.4-115.4-13-166.4 0-8.2 0.2-15.8 0.2-22.2s0-14-0.2-22.2c-0.4-51-1.2-130.2 13-166.4 5.4-13.8 13.6-26.2 24-36.8s23-18.6 36.8-24c36.2-14.2 115.2-13.6 166.2-13 8.2 0 15.8 0.2 22.4 0.2s14.4 0 22.8-0.2c51-0.6 129.6-1.4 165.8 13 13.8 5.4 26.2 13.6 36.8 24s18.6 23 24 36.8c14.4 36 13.6 114.8 13 166 0 8.4-0.2 16.2-0.2 22.8s0 14.2 0.2 22.8c0.6 51 1.4 129.8-13 166v0c-5.4 13.8-13.6 26.2-24 36.8zM539.2 584.4c44.202-29.859 72.88-79.781 72.88-136.4 0-90.619-73.461-164.080-164.080-164.080-34 0-65.584 10.341-91.78 28.050l0.58-0.369c-44.227 29.844-72.925 79.771-72.925 136.4 0 90.588 73.436 164.025 164.025 164.025 33.959 0 65.508-10.32 91.681-27.995l-0.581 0.37zM597.6 587c-6.2 4.2-11.2 10.2-14.2 17.2s-3.6 14.6-2.2 22.2 5.2 14.2 10.4 19.6 12.2 9 19.6 10.4 15.2 0.8 22.2-2.2 13-7.8 17.2-14 6.4-13.6 6.4-21.2c0-5-1-10-2.8-14.6s-4.8-8.8-8.2-12.4-7.8-6.4-12.4-8.4-9.6-3-14.6-3v0c-7.6 0-15 2.2-21.2 6.4zM896 768c0 70.6-57.4 128-128 128h-640c-70.6 0-128-57.4-128-128v-640c0-70.6 57.4-128 128-128h640c70.6 0 128 57.4 128 128v640zM714 182c-37.4-37.4-82.8-49.2-134-51.8-52.8-3-211.2-3-264 0-51.2 2.6-96.6 14.4-134 51.8s-49.2 82.8-51.6 134c-3 52.8-3 211.2 0 264 2.6 51.2 14.2 96.6 51.6 134s83 49.2 134 51.6c52.8 3 211.2 3 264 0 51.2-2.6 96.6-14.2 134-51.6s49.2-82.8 51.6-134c3-52.6 3-210.8 0-263.8-2.6-51.2-14.2-96.6-51.6-134z" />
<glyph unicode="&#xe917;" glyph-name="youtube-brands" d="M991.778 689.817c-11.551 43.451-45.468 77.551-88.551 89.1-78.1 21.084-391.233 21.084-391.233 21.084s-313.133 0-391.233-21.084c-43.084-11.55-77-45.651-88.55-89.1-20.9-78.651-20.9-242.551-20.9-242.551s0-163.9 20.9-242.551c11.55-43.451 45.468-76.084 88.55-87.633 78.1-21.084 391.233-21.084 391.233-21.084s313.133 0 391.233 21.084c43.084 11.551 77 44.368 88.551 87.633 20.9 78.651 20.9 242.551 20.9 242.551s0 163.9-20.9 242.55zM409.693 298.4v297.733l261.617-148.868-261.617-148.868z" />
<glyph unicode="&#xe918;" glyph-name="square-youtube-brands" d="M628 447.6l-190.4 108.2v-216.4l190.4 108.2zM832 896h-640c-70.6 0-128-57.4-128-128v-640c0-70.6 57.4-128 128-128h640c70.6 0 128 57.4 128 128v640c0 70.6-57.4 128-128 128zM860.8 623.8c15.2-57.2 15.2-176.4 15.2-176.4s0-119.2-15.2-176.2c-8.4-31.6-33-55.4-64.4-63.8-56.6-15.4-284.4-15.4-284.4-15.4s-227.8 0-284.4 15.2c-31.4 8.4-56 32.2-64.4 63.8-15.2 57.2-15.2 176.4-15.2 176.4s0 119.4 15.2 176.4c8.4 31.6 33 56.4 64.4 64.8 56.6 15.4 284.4 15.4 284.4 15.4s227.8 0 284.4-15.4c31.4-8.4 56-33.2 64.4-64.8z" />
<glyph unicode="&#xe919;" glyph-name="check" d="M909.114 726.711c23.125-23.125 23.125-60.68 0-83.805l-473.609-473.609c-23.125-23.125-60.68-23.125-83.805 0l-236.803 236.803c-23.125 23.125-23.125 60.68 0 83.805s60.68 23.125 83.805 0l194.993-194.808 431.796 431.611c23.125 23.125 60.68 23.125 83.805 0z" />
<glyph unicode="&#xe91a;" glyph-name="triangle-exclamation" d="M511.956 895.985c28.4 0 54.6-15 69-39.6l432-736c14.6-24.8 14.6-55.4 0.4-80.2s-40.8-40.2-69.4-40.2h-864c-28.6 0-55.2 15.4-69.4 40.2s-14 55.6 0.4 80.2l432 736c14.4 24.6 40.6 39.6 69 39.6zM511.956 639.985c-26.6 0-48-21.4-48-48v-224c0-26.6 21.4-48 48-48s48 21.4 48 48v224c0 26.6-21.4 48-48 48zM575.956 191.985c0 35.346-28.654 64-64 64s-64-28.654-64-64v0c0-35.346 28.654-64 64-64s64 28.654 64 64v0z" />
<glyph unicode="&#xe91b;" glyph-name="phone" d="M363.949 824.019c-12.508 30.228-45.5 46.311-77.028 37.7l-143-39c-28.272-7.8-47.936-33.472-47.936-62.728 0-402.029 325.984-728.012 728.012-728.012 29.253 0 54.928 19.664 62.728 47.936l39 143c8.608 31.528-7.472 64.513-37.7 77.028l-156 65c-26.492 11.051-57.2 3.408-75.236-18.852l-65.656-80.115c-114.4 54.112-207.028 146.736-261.146 261.146l80.115 65.492c22.264 18.2 29.9 48.755 18.852 75.236l-65 156z" />
<glyph unicode="&#xe91c;" glyph-name="xmark" d="M865.875 695.669c29.375 29.375 29.375 77.073 0 106.448s-77.073 29.375-106.448 0l-247.434-247.669-247.669 247.434c-29.375 29.375-77.073 29.375-106.448 0s-29.375-77.073 0-106.448l247.669-247.434-247.434-247.669c-29.375-29.375-29.375-77.073 0-106.448s77.073-29.375 106.448 0l247.434 247.669 247.669-247.434c29.375-29.375 77.073-29.375 106.448 0s29.375 77.073 0 106.448l-247.669 247.434 247.434 247.669z" />
<glyph unicode="&#xe91d;" glyph-name="envelope" d="M148.003 784.006c-46.376 0-84-37.624-84-84 0-26.426 12.424-51.274 33.6-67.2l380.804-285.604c19.95-14.876 47.25-14.876 67.2 0l380.804 285.604c21.176 15.926 33.6 40.774 33.6 67.2 0 46.376-37.624 84-84 84h-728.008zM64.003 588.002v-364.004c0-61.774 50.224-112.003 112.003-112.003h672.006c61.774 0 112.003 50.224 112.003 112.003v364.004l-380.804-285.604c-39.9-29.928-94.5-29.928-134.4 0l-380.804 285.604z" />
<glyph unicode="&#xe91e;" glyph-name="collection" d="M240.014 765.333v-45.334h544.001v45.334c0 50.074-40.595 90.667-90.669 90.667h-362.666c-50.074 0-90.667-40.593-90.667-90.667zM149.348 561.331v-45.332h725.331v45.332c0 50.076-40.591 90.669-90.665 90.669h-544.001c-50.074 0-90.667-40.593-90.667-90.669zM58.682 357.331v-136c0-100.147 81.186-181.331 181.333-181.331h544.001c100.147 0 181.331 81.186 181.331 181.331v136c0 50.078-40.591 90.669-90.669 90.669h-725.331c-50.074 0-90.667-40.591-90.667-90.669zM387.348 312c0 18.776 15.222 34.001 34.001 34.001h181.331c18.776 0 34.001-15.222 34.001-34.001s-15.222-34.001-34.001-34.001h-181.331c-18.776 0-34.001 15.222-34.001 34.001z" />
<glyph unicode="&#xe91f;" glyph-name="calendar" d="M339.2 880.015c-31.86 0-57.602-25.742-57.602-57.602v-57.602h-57.602c-63.542 0-115.198-51.662-115.198-115.198v-86.4h806.398v86.4c0 63.542-51.662 115.198-115.198 115.198h-57.602v57.602c0 31.86-25.742 57.602-57.602 57.602s-57.602-25.742-57.602-57.602v-57.602h-230.402v57.602c0 31.86-25.742 57.602-57.602 57.602zM108.8 476.819v-345.6c0-63.542 51.662-115.198 115.198-115.198h575.996c63.542 0 115.198 51.662 115.198 115.198v345.6h-806.398z" />
<glyph unicode="&#xe920;" glyph-name="floppy-disk, save" d="M221.701 854.399c-64.046 0-116.116-52.070-116.116-116.116v-580.568c0-64.046 52.070-116.116 116.116-116.116h580.568c64.046 0 116.116 52.070 116.116 116.116v440.322c0 30.842-12.154 60.414-33.928 82.188l-140.245 140.245c-21.774 21.774-51.346 33.928-82.188 33.928h-440.322zM279.754 680.226c0 32.112 25.946 58.058 58.058 58.058h290.284c32.112 0 58.058-25.946 58.058-58.058v-116.116c0-32.112-25.946-58.058-58.058-58.058h-290.284c-32.112 0-58.058 25.946-58.058 58.058v116.116zM511.985 389.942c64.046 0 116.116-52.070 116.116-116.116s-52.070-116.116-116.116-116.116c-64.046 0-116.116 52.070-116.116 116.116s52.070 116.116 116.116 116.116z" />
<glyph unicode="&#xe921;" glyph-name="share-solid-full" d="M601.968 847.14c-20.856-8.688-34.412-28.852-34.412-51.444v-139.036h-194.652c-168.928 0-305.88-136.952-305.88-305.88 0-196.912 141.644-284.852 174.144-302.58 4.344-2.432 9.212-3.304 14.076-3.304 18.944 0 34.236 15.468 34.236 34.236 0 13.036-7.472 25.028-17.032 33.892-16.336 15.296-38.584 45.884-38.584 98.544 0 92.112 74.732 166.844 166.844 166.844h166.844v-139.036c0-22.42 13.556-42.752 34.412-51.444s44.664-3.824 60.656 11.992l278.072 278.072c21.724 21.724 21.724 57.004 0 78.728l-278.072 278.072c-15.988 15.988-39.8 20.68-60.656 11.992z" />
<glyph unicode="&#xe922;" glyph-name="circle-check-solid-full" d="M512.015 22.385c-235.078 0-425.6 190.522-425.6 425.6s190.522 425.6 425.6 425.6c235.078 0 425.6-190.522 425.6-425.6s-190.522-425.6-425.6-425.6zM708.191 631.357c-17.788 12.968-42.726 8.978-55.694-8.812l-198.502-272.982-86.616 86.616c-15.628 15.628-40.898 15.628-56.358 0s-15.628-40.898 0-56.358l119.7-119.7c8.312-8.312 19.618-12.468 31.254-11.638s22.278 6.816 29.094 16.292l225.934 310.888c12.968 17.788 8.978 42.726-8.812 55.694z" />
</font>
</defs>
</svg>
